<svg width="200" height="50" viewBox="0 0 200 50" xmlns="http://www.w3.org/2000/svg">
  <!-- R letter with flow symbol -->
  <path d="M30 10 L10 10 L10 40 L20 40 L20 30 L30 30 C35 30 40 25 40 20 C40 15 35 10 30 10 Z M30 25 L20 25 L20 15 L30 15 C32.5 15 35 17.5 35 20 C35 22.5 32.5 25 30 25 Z" fill="#2563EB"/>
  
  <!-- Flow symbol -->
  <path d="M45 15 C55 15 55 25 65 25 C75 25 75 15 85 15" stroke="#10B981" stroke-width="5" fill="none" stroke-linecap="round"/>
  <path d="M45 25 C55 25 55 35 65 35 C75 35 75 25 85 25" stroke="#10B981" stroke-width="5" fill="none" stroke-linecap="round"/>
  
  <!-- Text: RupiahFlow -->
  <text x="95" y="30" font-family="Arial, sans-serif" font-weight="bold" font-size="20" fill="#1E293B">RupiahFlow</text>
</svg>